<svg width="24" height="30" viewBox="0 0 24 30" fill="none" xmlns="http://www.w3.org/2000/svg">
<path d="M9.5 19.9L10 21.2H9L9.5 19.9ZM24 9V27C24 27.8 23.7 28.5 23.1 29.1C22.5 29.7 21.8 30 21 30H3C2.2 30 1.49999 29.7 0.899994 29.1C0.299994 28.5 0 27.8 0 27V3C0 2.2 0.299994 1.5 0.899994 0.9C1.49999 0.3 2.2 0 3 0H15L24 9ZM6.60001 22.6C6.60001 22.4 6.49999 22.2 6.39999 22.1C6.29999 22 6.09999 21.9 5.89999 21.9C5.69999 21.9 5.49999 22 5.39999 22.1C5.29999 22.2 5.20001 22.4 5.20001 22.6C5.20001 22.8 5.29999 23 5.39999 23.1C5.49999 23.2 5.69999 23.3 5.89999 23.3C6.09999 23.3 6.29999 23.2 6.39999 23.1C6.49999 23 6.60001 22.8 6.60001 22.6ZM12.2 23.3L10.1 18.4H9L6.89999 23.3H8.20001L8.60001 22.3H10.4L10.8 23.3H12.2ZM16.8 18.4H15.4L14.2 21.6L13 18.4H11.6L13.6 23.3H14.8L16.8 18.4ZM18.6 18.4H17.3V23.3H18.6V18.4ZM21 10.5L13.5 3V10.5H15H21Z" fill="#0591C6"/>
</svg>
