<svg width="24" height="30" viewBox="0 0 24 30" fill="none" xmlns="http://www.w3.org/2000/svg">
<path d="M14.3 19.8C14.5 20.1 14.7 20.4 14.7 20.8C14.7 21.2 14.6 21.5 14.3 21.8C14.1 22.1 13.8 22.2 13.4 22.2C13 22.2 12.7 22.1 12.5 21.8C12.3 21.5 12.1 21.2 12.1 20.8C12.1 20.4 12.2 20.1 12.5 19.8C12.8 19.5 13.1 19.4 13.4 19.4C13.7 19.4 14 19.6 14.3 19.8ZM7.3 19.5H6.7V22.2H7.3C8.3 22.2 8.8 21.7 8.8 20.9C8.8 20 8.3 19.5 7.3 19.5ZM24 9V27C24 27.8 23.7 28.5 23.1 29.1C22.5 29.7 21.8 30 21 30H3C2.2 30 1.5 29.7 0.900002 29.1C0.300002 28.5 0 27.8 0 27V3C0 2.2 0.300002 1.5 0.900002 0.9C1.5 0.3 2.2 0 3 0H15L24 9ZM4.8 22.6C4.8 22.4 4.7 22.2 4.6 22.1C4.5 22 4.3 21.9 4.1 21.9C3.9 21.9 3.7 22 3.6 22.1C3.5 22.2 3.4 22.4 3.4 22.6C3.4 22.8 3.5 23 3.6 23.1C3.7 23.2 3.9 23.3 4.1 23.3C4.3 23.3 4.5 23.2 4.6 23.1C4.7 23 4.8 22.8 4.8 22.6ZM10.1 20.8C10.1 20.1 9.8 19.5 9.3 19C8.8 18.5 8.1 18.3 7.3 18.3H5.3V23.2H7.3C8.1 23.2 8.7 23 9.3 22.5C9.9 22.1 10.1 21.5 10.1 20.8ZM15.9 20.8C15.9 20.1 15.7 19.5 15.2 19C14.7 18.5 14.1 18.3 13.4 18.3C12.7 18.3 12 18.5 11.6 19C11.1 19.5 10.9 20.1 10.9 20.8C10.9 21.5 11.1 22.1 11.6 22.6C12.1 23.1 12.7 23.3 13.4 23.3C14.1 23.3 14.8 23.1 15.2 22.6C15.7 22.1 15.9 21.5 15.9 20.8ZM20.6 21.8C20.3 22.1 19.8 22.2 19.3 22.2C18.9 22.2 18.5 22.1 18.2 21.8C17.9 21.5 17.8 21.2 17.8 20.8C17.8 20.4 17.9 20.1 18.2 19.8C18.5 19.5 18.8 19.4 19.2 19.4C19.7 19.4 20.1 19.5 20.5 19.8V18.6C20.1 18.4 19.7 18.3 19.2 18.3C18.4 18.3 17.8 18.5 17.2 19C16.7 19.5 16.4 20.1 16.4 20.8C16.4 21.5 16.7 22.2 17.2 22.6C17.7 23.1 18.4 23.3 19.2 23.3C19.7 23.3 20.1 23.2 20.5 23V21.8H20.6ZM21 10.5L13.5 3V10.5H15H21Z" fill="#0591C6"/>
</svg>
