<svg width="24" height="30" viewBox="0 0 24 30" fill="none" xmlns="http://www.w3.org/2000/svg">
<path d="M15 0H3C2.2 0 1.49999 0.3 0.899994 0.9C0.299994 1.5 0 2.2 0 3V27C0 27.8 0.299994 28.5 0.899994 29.1C1.49999 29.7 2.2 30 3 30H21C21.8 30 22.5 29.7 23.1 29.1C23.7 28.5 24 27.8 24 27V9L15 0ZM6.60001 23.2C6.50001 23.3 6.30001 23.4 6.10001 23.4C5.90001 23.4 5.70001 23.3 5.60001 23.2C5.50001 23.1 5.39999 22.9 5.39999 22.7C5.39999 22.5 5.50001 22.3 5.60001 22.2C5.70001 22.1 5.90001 22 6.10001 22C6.30001 22 6.50001 22.1 6.60001 22.2C6.70001 22.3 6.8 22.5 6.8 22.7C6.8 22.9 6.70001 23 6.60001 23.2ZM11.9 22.6C11.7 22.8 11.4 23 11.1 23.2C10.7 23.3 10.3 23.4 9.89999 23.4C9.09999 23.4 8.5 23.2 8 22.7C7.5 22.2 7.2 21.6 7.2 20.9C7.2 20.2 7.5 19.5 8 19.1C8.5 18.6 9.19999 18.4 9.89999 18.4C10.4 18.4 10.9 18.5 11.3 18.8V20C10.9 19.8 10.4 19.6 10 19.6C9.6 19.6 9.19999 19.7 8.89999 20C8.59999 20.3 8.5 20.6 8.5 21C8.5 21.4 8.59999 21.8 8.89999 22C9.19999 22.3 9.49999 22.4 9.89999 22.4C10.2 22.4 10.5 22.3 10.7 22.2V20.6H12V22.6H11.9ZM14 23.3H12.7V18.4H14V23.3ZM18.7 19.5H16.2V20.2H18V21.3H16.2V23.3H15V18.4H18.7V19.5ZM15 10.5H13.5V3L21 10.5H15Z" fill="#0591C6"/>
</svg>
