<svg width="24" height="30" viewBox="0 0 24 30" fill="none" xmlns="http://www.w3.org/2000/svg">
<path d="M13 19.9C13 20.2 12.8 20.4 12.4 20.4H11.6V19.4H12.4C12.7 19.4 13 19.6 13 19.9ZM24 9V27C24 27.8 23.7 28.5 23.1 29.1C22.5 29.7 21.8 30 21 30H3C2.2 30 1.49999 29.7 0.899994 29.1C0.299994 28.5 0 27.8 0 27V3C0 2.2 0.299994 1.5 0.899994 0.9C1.49999 0.3 2.2 0 3 0H15L24 9ZM6 22.6C6 22.4 5.9 22.2 5.8 22.1C5.7 22 5.5 21.9 5.3 21.9C5.1 21.9 4.9 22 4.8 22.1C4.7 22.2 4.60001 22.4 4.60001 22.6C4.60001 22.8 4.7 23 4.8 23.1C4.9 23.2 5.1 23.3 5.3 23.3C5.5 23.3 5.7 23.2 5.8 23.1C5.9 23 6 22.8 6 22.6ZM9.39999 18.4H8.10001V21.4C8.10001 22 7.8 22.2 7.3 22.2C7 22.2 6.69999 22.1 6.39999 21.9V23.1C6.69999 23.3 7.10001 23.4 7.60001 23.4C8.10001 23.4 8.5 23.3 8.8 23C9.2 22.7 9.39999 22.3 9.39999 21.6V18.4ZM14.2 19.9C14.2 19.4 14 19.1 13.7 18.8C13.4 18.5 12.9 18.4 12.4 18.4H10.2V23.3H11.5V21.5H12.4C12.9 21.5 13.4 21.4 13.7 21.1C14 20.8 14.2 20.4 14.2 19.9ZM19.4 20.4H18.1V22C17.9 22.2 17.7 22.2 17.3 22.2C16.9 22.2 16.6 22.1 16.3 21.8C16 21.5 15.9 21.2 15.9 20.8C15.9 20.4 16 20 16.3 19.8C16.6 19.5 16.9 19.4 17.4 19.4C17.8 19.4 18.3 19.5 18.7 19.8V18.6C18.3 18.4 17.8 18.2 17.3 18.2C16.5 18.2 15.9 18.4 15.4 18.9C14.9 19.4 14.6 20 14.6 20.7C14.6 21.4 14.9 22.1 15.4 22.5C15.9 23 16.5 23.2 17.3 23.2C17.7 23.2 18.1 23.1 18.5 23C18.9 22.8 19.2 22.7 19.3 22.4V20.4H19.4ZM21 10.5L13.5 3V10.5H15H21Z" fill="#0591C6"/>
</svg>
