<svg width="24" height="30" viewBox="0 0 24 30" fill="none" xmlns="http://www.w3.org/2000/svg">
<path d="M15 0H3C2.2 0 1.49999 0.3 0.899994 0.9C0.299994 1.5 0 2.2 0 3V27C0 27.8 0.299994 28.5 0.899994 29.1C1.49999 29.7 2.2 30 3 30H21C21.8 30 22.5 29.7 23.1 29.1C23.7 28.5 24 27.8 24 27V9L15 0ZM13.5 3L21 10.5H15H13.5V3ZM4.10001 23.2C4.00001 23.3 3.80001 23.4 3.60001 23.4C3.40001 23.4 3.20001 23.3 3.10001 23.2C3.00001 23.1 2.89999 22.9 2.89999 22.7C2.89999 22.5 3.00001 22.3 3.10001 22.2C3.20001 22.1 3.40001 22 3.60001 22C3.80001 22 4.00001 22.1 4.10001 22.2C4.20001 22.3 4.29999 22.5 4.29999 22.7C4.29999 22.9 4.30001 23 4.10001 23.2ZM10 23.3H8.70001V20.3L7.79999 21.6H7.10001L6.20001 20.3V23.3H5V18.4H6.29999L7.5 20.3L8.70001 18.4H9.89999V23.3H10ZM15.3 22.6C14.8 23.1 14.2 23.3 13.5 23.3C12.8 23.3 12.1 23.1 11.7 22.6C11.2 22.1 11 21.5 11 20.8C11 20.1 11.2 19.5 11.7 19C12.2 18.5 12.8 18.3 13.5 18.3C14.2 18.3 14.9 18.5 15.3 19C15.7 19.5 16 20.1 16 20.8C16 21.5 15.7 22.1 15.3 22.6ZM19.3 23.3H18.1L16.1 18.4H17.5L18.7 21.6L19.9 18.4H21.3L19.3 23.3ZM14.3 19.8C14.5 20.1 14.7 20.4 14.7 20.8C14.7 21.2 14.6 21.5 14.3 21.8C14.1 22.1 13.8 22.2 13.4 22.2C13 22.2 12.7 22.1 12.5 21.8C12.3 21.5 12.1 21.2 12.1 20.8C12.1 20.4 12.2 20.1 12.5 19.8C12.8 19.5 13.1 19.4 13.4 19.4C13.8 19.4 14.1 19.6 14.3 19.8Z" fill="#0591C6"/>
</svg>
