<svg width="24" height="30" viewBox="0 0 24 30" fill="none" xmlns="http://www.w3.org/2000/svg">
<path d="M14.8 19.9C14.8 20.2 14.6 20.4 14.2 20.4H13.4V19.4H14.2C14.5 19.4 14.8 19.6 14.8 19.9ZM24 9V27C24 27.8 23.7 28.5 23.1 29.1C22.5 29.7 21.8 30 21 30H3C2.2 30 1.49999 29.7 0.899994 29.1C0.299994 28.5 0 27.8 0 27V3C0 2.2 0.299994 1.5 0.899994 0.9C1.49999 0.3 2.2 0 3 0H15L24 9ZM5.39999 22.6C5.39999 22.4 5.30001 22.2 5.20001 22.1C5.10001 22 4.90001 21.9 4.70001 21.9C4.50001 21.9 4.30001 22 4.20001 22.1C4.10001 22.2 4 22.4 4 22.6C4 22.8 4.10001 23 4.20001 23.1C4.30001 23.2 4.50001 23.3 4.70001 23.3C4.90001 23.3 5.10001 23.2 5.20001 23.1C5.40001 23 5.39999 22.8 5.39999 22.6ZM11.1 18.4H9.89999L8.70001 20.3L7.5 18.4H6.20001V23.3H7.5V20.3L8.39999 21.6H9.10001L10 20.3V23.3H11.3V18.4H11.1ZM16 19.9C16 19.4 15.8 19.1 15.5 18.8C15.2 18.5 14.7 18.4 14.2 18.4H12V23.3H13.3V21.5H14.2C14.7 21.5 15.2 21.4 15.5 21.1C15.8 20.8 16 20.4 16 19.9ZM20 21.6C20 21.2 19.8 20.8 19.6 20.6C19.3 20.4 19.1 20.2 18.8 20.2L19.8 19.4V18.5H16.6V19.6H18.2L17.2 20.5V21.3C17.4 21.2 17.7 21.1 18 21.1C18.5 21.1 18.8 21.4 18.8 21.7C18.8 22.1 18.4 22.4 18 22.4C17.5 22.4 17 22.2 16.5 21.9V23C16.9 23.3 17.4 23.4 18 23.4C18.6 23.4 19.1 23.2 19.5 22.9C19.8 22.6 20 22.1 20 21.6ZM21 10.5L13.5 3V10.5H15H21Z" fill="#0591C6"/>
</svg>
