<svg width="24" height="30" viewBox="0 0 24 30" fill="none" xmlns="http://www.w3.org/2000/svg">
<path d="M17.4 21.1L18.4 19.9V21.1H17.4ZM24 9V27C24 27.8 23.7 28.5 23.1 29.1C22.5 29.7 21.8 30 21 30H3C2.2 30 1.49999 29.7 0.899994 29.1C0.299994 28.5 0 27.8 0 27V3C0 2.2 0.299994 1.5 0.899994 0.9C1.49999 0.3 2.2 0 3 0H15L24 9ZM5.20001 22.6C5.20001 22.4 5.1 22.2 5 22.1C4.9 22 4.7 21.9 4.5 21.9C4.3 21.9 4.1 22 4 22.1C3.9 22.2 3.79999 22.4 3.79999 22.6C3.79999 22.8 3.9 23 4 23.1C4.1 23.2 4.3 23.3 4.5 23.3C4.7 23.3 4.9 23.2 5 23.1C5.1 23 5.20001 22.8 5.20001 22.6ZM10.9 18.4H9.70001L8.5 20.3L7.29999 18.4H6V23.3H7.29999V20.3L8.20001 21.6H8.89999L9.79999 20.3V23.3H11.1V18.4H10.9ZM15.8 19.9C15.8 19.4 15.6 19.1 15.3 18.8C15 18.5 14.5 18.4 14 18.4H11.8V23.3H13.1V21.5H14C14.5 21.5 15 21.4 15.3 21.1C15.6 20.8 15.8 20.4 15.8 19.9ZM20.4 21.1H19.7V18.3H18.5L16.2 21.2V22.1H18.6V23.3H19.8V22.1H20.5V21.1H20.4ZM21 10.5L13.5 3V10.5H15H21ZM13.9 19.4H13.1V20.4H13.9C14.3 20.4 14.5 20.2 14.5 19.9C14.5 19.6 14.3 19.4 13.9 19.4Z" fill="#0591C6"/>
</svg>
