<svg width="24" height="30" viewBox="0 0 24 30" fill="none" xmlns="http://www.w3.org/2000/svg">
<path d="M14.2 20.8C14.2 21.7 13.7 22.1 12.7 22.1H12.1V19.4H12.7C13.6 19.5 14.2 20 14.2 20.8ZM8.3 19.4H7.5V20.4H8.3C8.7 20.4 8.9 20.2 8.9 19.9C8.9 19.6 8.7 19.4 8.3 19.4ZM24 9V27C24 27.8 23.7 28.5 23.1 29.1C22.5 29.7 21.8 30 21 30H3C2.2 30 1.5 29.7 0.900002 29.1C0.300002 28.5 0 27.8 0 27V3C0 2.2 0.300002 1.5 0.900002 0.9C1.5 0.3 2.2 0 3 0H15L24 9ZM5.5 22.6C5.5 22.4 5.4 22.2 5.3 22.1C5.2 22 5 21.9 4.8 21.9C4.6 21.9 4.4 22 4.3 22.1C4.2 22.2 4.1 22.4 4.1 22.6C4.1 22.8 4.2 23 4.3 23.1C4.4 23.2 4.6 23.3 4.8 23.3C5 23.3 5.2 23.2 5.3 23.1C5.4 23 5.5 22.8 5.5 22.6ZM10.2 19.9C10.2 19.4 10 19.1 9.7 18.8C9.4 18.5 8.9 18.4 8.4 18.4H6.2V23.3H7.5V21.5H8.4C8.9 21.5 9.4 21.4 9.7 21.1C10 20.8 10.2 20.4 10.2 19.9ZM15.5 20.8C15.5 20.1 15.2 19.5 14.7 19C14.2 18.5 13.5 18.3 12.7 18.3H10.7V23.2H12.7C13.5 23.2 14.1 23 14.7 22.5C15.2 22.1 15.5 21.5 15.5 20.8ZM20 18.4H16.3V23.3H17.6V21.3H19.4V20.2H17.6V19.5H20.1V18.4H20ZM21 10.5L13.5 3V10.5H15H21Z" fill="#0591C6"/>
</svg>
