<svg width="24" height="30" viewBox="0 0 24 30" fill="none" xmlns="http://www.w3.org/2000/svg">
<path d="M8.5 19.9C8.5 20.2 8.29999 20.4 7.89999 20.4H7V19.4H7.8C8.2 19.4 8.5 19.6 8.5 19.9ZM24 9V27C24 27.8 23.7 28.5 23.1 29.1C22.5 29.7 21.8 30 21 30H3C2.2 30 1.49999 29.7 0.899994 29.1C0.299994 28.5 0 27.8 0 27V3C0 2.2 0.299994 1.5 0.899994 0.9C1.49999 0.3 2.2 0 3 0H15L24 9ZM5.10001 22.6C5.10001 22.4 4.99999 22.2 4.89999 22.1C4.79999 22 4.59999 21.9 4.39999 21.9C4.19999 21.9 3.99999 22 3.89999 22.1C3.79999 22.2 3.7 22.4 3.7 22.6C3.7 22.8 3.79999 23 3.89999 23.1C3.99999 23.2 4.19999 23.3 4.39999 23.3C4.59999 23.3 4.79999 23.2 4.89999 23.1C4.99999 23 5.10001 22.8 5.10001 22.6ZM9.8 19.9C9.8 19.4 9.6 19.1 9.3 18.8C9 18.5 8.5 18.4 8 18.4H5.8V23.3H7.10001V21.5H8C8.5 21.5 9 21.4 9.3 21.1C9.6 20.8 9.8 20.4 9.8 19.9ZM14.8 18.4H13.6V21.1L11.5 18.4H10.4V23.3H11.6V20.6L13.8 23.3H14.8V18.4ZM20.3 20.4H19V22C18.8 22.2 18.6 22.2 18.2 22.2C17.8 22.2 17.5 22.1 17.2 21.8C16.9 21.5 16.8 21.2 16.8 20.8C16.8 20.4 16.9 20 17.2 19.8C17.5 19.5 17.8 19.4 18.3 19.4C18.7 19.4 19.2 19.5 19.6 19.8V18.6C19.2 18.4 18.7 18.2 18.2 18.2C17.4 18.2 16.8 18.4 16.3 18.9C15.8 19.4 15.5 20 15.5 20.7C15.5 21.4 15.8 22.1 16.3 22.5C16.8 23 17.4 23.2 18.2 23.2C18.6 23.2 19 23.1 19.4 23C19.8 22.8 20.1 22.7 20.2 22.4V20.4H20.3ZM21 10.5L13.5 3V10.5H15H21Z" fill="#0591C6"/>
</svg>
