<svg width="24" height="30" viewBox="0 0 24 30" fill="none" xmlns="http://www.w3.org/2000/svg">
<path d="M15 0H3C2.2 0 1.49999 0.3 0.899994 0.9C0.299994 1.5 0 2.2 0 3V27C0 27.8 0.299994 28.5 0.899994 29.1C1.49999 29.7 2.2 30 3 30H21C21.8 30 22.5 29.7 23.1 29.1C23.7 28.5 24 27.8 24 27V9L15 0ZM5.8 23.2C5.7 23.3 5.5 23.4 5.3 23.4C5.1 23.4 4.9 23.3 4.8 23.2C4.7 23.1 4.60001 22.9 4.60001 22.7C4.60001 22.5 4.7 22.3 4.8 22.2C4.9 22.1 5.1 22 5.3 22C5.5 22 5.7 22.1 5.8 22.2C5.9 22.3 6 22.5 6 22.7C6 22.9 5.9 23 5.8 23.2ZM10 23.3L8.89999 21.7L7.8 23.3H6.3L8.2 20.7L6.60001 18.4H8.10001L9 19.7L9.89999 18.4H11.3L9.7 20.7L11.6 23.3H10ZM15.1 22.9C14.7 23.2 14.2 23.3 13.7 23.3C12.9 23.3 12.3 23.1 11.8 22.8V21.5C12 21.7 12.3 21.8 12.6 22C13 22.1 13.3 22.2 13.6 22.2C14.1 22.2 14.3 22.1 14.3 21.8C14.3 21.7 14.2 21.6 14.1 21.5C14 21.5 13.9 21.4 13.8 21.4L13.4 21.3L13 21.2L12.7 21.1C12.6 21 12.5 21 12.4 20.9C12.3 20.8 12 20.6 11.9 20.5C11.8 20.3 11.7 20.1 11.7 19.8C11.7 18.9 12.4 18.3 13.6 18.3C14.2 18.3 14.7 18.4 15.3 18.7V19.9C15.1 19.8 14.8 19.7 14.5 19.6C14.2 19.5 13.9 19.5 13.6 19.5C13.2 19.5 13 19.6 13 19.8C13 19.9 13.1 20 13.2 20L13.4 20.1C13.5 20.1 13.9 20.2 14.1 20.3C14.6 20.5 14.9 20.7 15.2 20.9C15.5 21.1 15.6 21.5 15.6 21.9C15.6 22.3 15.4 22.7 15.1 22.9ZM19.9 23.3H16.3V18.4H17.6V22.2H20V23.3H19.9ZM15 10.5H13.5V3L21 10.5H15Z" fill="#0591C6"/>
</svg>
