<svg width="16" height="17" viewBox="0 0 16 17" fill="none" xmlns="http://www.w3.org/2000/svg">
<path d="M2.4 4.8C2.4 4.5 2.7 4.2 3 4.2H8.2C8.5 4.2 8.8 4.5 8.8 4.8C8.8 5.1 8.6 5.5 8.3 5.5H3C2.7 5.5 2.4 5.2 2.4 4.8ZM3 8.6H8.2C8.5 8.6 8.8 8.3 8.8 8C8.8 7.7 8.6 7.4 8.3 7.4H3C2.7 7.4 2.4 7.7 2.4 8C2.4 8.3 2.7 8.6 3 8.6ZM8.3 11.8C8.6 11.8 8.9 11.5 8.9 11.2C8.9 10.9 8.6 10.5 8.3 10.5H3C2.7 10.5 2.4 10.8 2.4 11.1C2.4 11.4 2.7 11.7 3 11.7H8.3V11.8ZM15.9 6.4V13.4C15.9 15 14.6 16.3 13 16.3H2.9C1.3 16.3 0 15 0 13.4V1.1C0 0.8 0.3 0.5 0.6 0.5H10.7C11 0.5 11.3 0.8 11.3 1.1V13.4C11.3 14.3 12 15.1 13 15.1C14 15.1 14.7 14.4 14.7 13.4V7H13.3C13 7 12.7 6.7 12.7 6.4C12.7 6.1 13 5.8 13.3 5.8H15.4C15.7 5.8 15.9 6 15.9 6.4ZM2.9 15.1H10.6C10.3 14.6 10.1 14.1 10.1 13.4V1.8H1.3V13.5C1.3 14.4 2 15.1 2.9 15.1Z" fill="#7AB80E"/>
</svg>
