<svg width="16" height="16" viewBox="0 0 16 16" fill="none" xmlns="http://www.w3.org/2000/svg">
<path d="M12.5354 11.1699C12.7874 11.3939 12.8084 11.7807 12.5774 12.025C12.0525 12.5951 11.4016 13.0431 10.6667 13.4095C9.93176 13.7557 9.13386 13.9593 8.27297 14C8.16798 14 8.06299 14 7.958 14C7.2021 14 6.48819 13.8778 5.81627 13.6335C5.06037 13.3485 4.36745 12.9616 3.77953 12.4322C3.1916 11.9232 2.72966 11.292 2.35171 10.5794C2.07874 9.96861 1.88976 9.29671 1.82677 8.56373L1.07087 9.29671C0.818898 9.54104 0.419947 9.54104 0.188976 9.29671C-0.0629921 9.05239 -0.0629921 8.66554 0.188976 8.44157L2.07874 6.60912C2.33071 6.36479 2.72966 6.36479 2.96063 6.60912L4.85039 8.44157C5.10236 8.6859 5.10236 9.07275 4.85039 9.29671C4.72441 9.41888 4.55643 9.47996 4.40945 9.47996C4.26247 9.47996 4.09449 9.41888 3.9685 9.29671L3.08661 8.44157C3.14961 9.01166 3.29659 9.54104 3.52756 10.0297C3.82152 10.5998 4.19947 11.0884 4.66142 11.516C5.12336 11.9232 5.66929 12.249 6.29921 12.473C6.90814 12.6969 7.55905 12.7987 8.23097 12.758C8.92388 12.7173 9.55381 12.5748 10.1417 12.2897C10.7297 12.0047 11.2546 11.6382 11.6745 11.1902C11.8845 10.9663 12.2835 10.9459 12.5354 11.1699ZM15.811 6.64984C15.5591 6.40551 15.1601 6.40551 14.9291 6.64984L14.1522 7.40318C14.0892 6.69056 13.9003 6.01866 13.5853 5.38749C13.2283 4.67487 12.7454 4.06405 12.1785 3.55504C11.5906 3.02566 10.8976 2.63881 10.1417 2.37413C9.38583 2.08908 8.54593 1.96691 7.70604 2.00764C6.84514 2.04836 6.04724 2.25196 5.31234 2.59809C4.57743 2.94422 3.92651 3.39215 3.40157 3.96225C3.1706 4.20657 3.1916 4.59343 3.44357 4.81739C3.69554 5.04136 4.09449 5.021 4.32546 4.77667C4.74541 4.32874 5.24934 3.96225 5.85827 3.6772C6.4252 3.37179 7.07612 3.22927 7.74803 3.18855C8.44094 3.14783 9.09186 3.24963 9.70079 3.4736C10.3097 3.69756 10.8556 4.00297 11.3176 4.41018C11.7795 4.81739 12.1575 5.32641 12.4514 5.87614C12.7034 6.36479 12.8294 6.91453 12.8924 7.46426L12.0315 6.64984C11.7795 6.40551 11.3806 6.40551 11.1496 6.64984C10.8976 6.89417 10.8976 7.28102 11.1496 7.50498L13.0394 9.33743C13.1654 9.4596 13.3333 9.52068 13.4803 9.52068C13.6273 9.52068 13.7953 9.4596 13.9213 9.33743L15.811 7.50498C16.063 7.28102 16.063 6.89417 15.811 6.64984Z" fill="#7AB80E"/>
</svg>
