<svg width="16" height="16" viewBox="0 0 16 16" fill="none" xmlns="http://www.w3.org/2000/svg">
<path d="M14.7966 9.98119C15.0547 9.72307 15.0805 9.25845 14.7966 9.00033C14.6676 8.87127 14.4869 8.79383 14.3062 8.79383C14.1255 8.79383 13.9448 8.87127 13.8157 9.00033L9.71161 13.1045C9.16956 13.6465 8.52425 14.0337 7.80151 14.2402C7.05296 14.4467 6.3044 14.4467 5.58166 14.266C4.83311 14.0853 4.1878 13.6981 3.64575 13.1561C3.10369 12.614 2.71651 11.9687 2.53583 11.2202C2.35514 10.4716 2.35514 9.72307 2.56164 9.00033C2.76813 8.25178 3.15532 7.60647 3.69737 7.09023L8.34357 2.3666C8.73075 2.00523 9.16956 1.74711 9.71161 1.64386C10.0214 1.59223 10.3569 1.56642 10.6667 1.64386C11.2087 1.74711 11.6733 1.97942 12.0605 2.3666C12.3961 2.70216 12.6284 3.08934 12.7316 3.55396C12.8349 3.99277 12.8349 4.45739 12.7316 4.89619C12.6284 5.335 12.3961 5.748 12.0605 6.08355L7.3627 10.7297C7.25945 10.8588 7.10458 10.9362 6.94971 10.9879C6.79484 11.0395 6.61415 11.0395 6.45928 10.9879C6.3044 10.9621 6.14953 10.8588 6.02047 10.7297C5.89141 10.6007 5.81397 10.4458 5.76235 10.2909C5.73654 10.1361 5.73654 9.95538 5.76235 9.80051C5.81397 9.64564 5.89141 9.49076 6.02047 9.3617L10.0988 5.25756C10.3569 4.99944 10.3569 4.53482 10.0988 4.2767C9.96973 4.14764 9.78905 4.0702 9.60836 4.0702C9.42768 4.0702 9.24699 4.14764 9.11793 4.2767L5.01379 8.40665C4.70405 8.69058 4.49755 9.05196 4.3943 9.46495C4.29105 9.87794 4.29105 10.2909 4.3943 10.7039C4.49755 11.1169 4.70405 11.4783 4.98798 11.7622C5.29773 12.072 5.6591 12.2785 6.09791 12.3817C6.48509 12.485 6.89808 12.485 7.28527 12.3817C7.69826 12.2785 8.03382 12.072 8.34357 11.7622L13.0414 7.06442C13.6351 6.44492 13.9964 5.69637 14.1255 4.81876C14.1771 4.45739 14.1771 4.09602 14.1255 3.73464C13.9964 2.83122 13.6093 2.05685 12.9898 1.43736C12.4735 0.921117 11.8798 0.585558 11.2087 0.404873C10.8473 0.301624 10.5118 0.25 10.1504 0.25C9.81486 0.25 9.4793 0.301624 9.16956 0.379061C8.49844 0.559746 7.87895 0.895305 7.3627 1.38574L2.66489 6.05774C1.94214 6.78048 1.45171 7.63229 1.19359 8.61315C0.93547 9.5682 0.93547 10.5491 1.19359 11.5041C1.45171 12.485 1.94214 13.3368 2.66489 14.0595C3.38763 14.7823 4.26524 15.2727 5.22029 15.5308C6.17534 15.7889 7.15621 15.7889 8.11126 15.5308C9.09212 15.2727 9.94392 14.7823 10.6667 14.0595L14.7966 9.98119Z" fill="#2F2F2F"/>
</svg>
