<svg width="16" height="17" viewBox="0 0 16 17" fill="none" xmlns="http://www.w3.org/2000/svg">
<path d="M7.73505 11.027C7.8007 11.0708 7.88276 11.0927 7.98124 11.0927C8.07971 11.0927 8.18366 11.0708 8.29308 11.027C8.3259 10.9942 8.35873 10.9723 8.39156 10.9614C8.42438 10.9504 8.46268 10.9285 8.50644 10.8957L12.0023 7.39982C12.1446 7.25758 12.2157 7.09345 12.2157 6.90744C12.2157 6.72143 12.1446 6.5573 12.0023 6.41506C11.8601 6.27282 11.696 6.2017 11.51 6.2017C11.324 6.2017 11.1598 6.27282 11.0176 6.41506L8.7034 8.72925L8.7034 2.00006C8.7034 1.79216 8.64048 1.62256 8.51465 1.49126C8.38882 1.35996 8.22196 1.29431 8.01406 1.29431C7.79523 1.29431 7.6229 1.35996 7.49707 1.49126C7.37123 1.62256 7.30832 1.79216 7.30832 2.00006L7.30832 8.72925L4.99414 6.41506C4.85189 6.27282 4.68777 6.2017 4.50176 6.2017C4.31575 6.2017 4.15162 6.27282 4.00938 6.41506C3.94373 6.48071 3.89449 6.56004 3.86166 6.65304C3.82884 6.74605 3.81242 6.83085 3.81242 6.90744C3.81242 6.97309 3.82884 7.05242 3.86166 7.14542C3.89449 7.23843 3.94373 7.32323 4.00938 7.39982L7.52168 10.8957C7.55451 10.9285 7.58733 10.9586 7.62016 10.986C7.65299 11.0133 7.69128 11.027 7.73505 11.027Z" fill="#2F2F2F"/>
<path d="M13.6108 10.7984L13.6108 13.605C13.6108 13.8129 13.5451 13.9797 13.4138 14.1056C13.2825 14.2314 13.1129 14.2943 12.905 14.2943L3.10668 14.2943C2.88784 14.2943 2.71551 14.2314 2.58968 14.1056C2.46385 13.9797 2.40093 13.8129 2.40093 13.605L2.40093 10.7984C2.40093 10.5905 2.33802 10.4209 2.21219 10.2896C2.08636 10.1583 1.91403 10.0927 1.69519 10.0927C1.4873 10.0927 1.32044 10.1583 1.1946 10.2896C1.06877 10.4209 1.00586 10.5905 1.00586 10.7984L1.00586 13.605C1.00586 14.1958 1.20554 14.6937 1.60492 15.0985C2.0043 15.5034 2.50488 15.7058 3.10668 15.7058L12.905 15.7058C13.4959 15.7058 13.9937 15.5034 14.3986 15.0985C14.8034 14.6937 15.0059 14.1958 15.0059 13.605L15.0059 10.7984C15.0059 10.5905 14.9429 10.4209 14.8171 10.2896C14.6913 10.1583 14.5189 10.0927 14.3001 10.0927C14.0922 10.0927 13.9254 10.1583 13.7995 10.2896C13.6737 10.4209 13.6108 10.5905 13.6108 10.7984Z" fill="#2F2F2F"/>
</svg>
