<svg width="16" height="16" viewBox="0 0 16 16" fill="none" xmlns="http://www.w3.org/2000/svg">
<path d="M8 2.33743C4.87309 2.33743 2.33743 4.87309 2.33743 8C2.33743 11.1269 4.87309 13.6626 8 13.6626C11.1269 13.6626 13.6626 11.1269 13.6626 8C13.6626 4.87309 11.1269 2.33743 8 2.33743ZM10.6184 10.8201H9.07046C8.74467 10.3254 8.06033 9.27559 7.507 8.39819C7.34497 8.1379 7.21913 8.08619 7.09502 8.11205V9.64792C7.09502 10.3857 7.14846 10.4116 7.74833 10.4977V10.8184H5.38332V10.4977C5.96595 10.4288 6.04525 10.384 6.04525 9.64792V6.35036C6.04525 5.6212 5.96768 5.56087 5.38332 5.50054V5.17992H7.73971V5.50054C7.17949 5.57811 7.09502 5.6212 7.09502 6.35036V7.80866C7.25706 7.75695 7.44495 7.61733 7.70179 7.34842C8.23098 6.76578 8.57229 6.29864 8.80672 5.96768C8.99289 5.69877 8.94635 5.56777 8.58953 5.51605L8.44128 5.49882V5.1782H10.4788V5.49882C9.94268 5.57639 9.65481 5.61948 9.16527 6.21073C8.86016 6.56755 8.48093 7.00022 8.1379 7.41737C8.62745 8.181 9.23422 9.11011 9.83409 9.9513C10.122 10.3685 10.2219 10.4288 10.6201 10.4977V10.8184L10.6184 10.8201Z" fill="#D24615"/>
<path d="M8 0C3.58199 0 0 3.58199 0 8C0 12.418 3.58199 16 8 16C12.418 16 16 12.418 16 8C16 3.58199 12.418 0 8 0ZM8 14.8106C4.23874 14.8106 1.1894 11.7613 1.1894 8C1.1894 4.23874 4.23874 1.1894 8 1.1894C11.7613 1.1894 14.8106 4.23874 14.8106 8C14.8106 11.7613 11.7613 14.8106 8 14.8106Z" fill="#D24615"/>
</svg>
