<svg width="16" height="16" viewBox="0 0 16 16" fill="none" xmlns="http://www.w3.org/2000/svg">
<path d="M0.8 3.8H5.9C6.2 4.5 6.9 5 7.8 5C8.7 5 9.4 4.5 9.7 3.8H14.8C15.2 3.8 15.6 3.5 15.6 3C15.6 2.5 15.3 2.2 14.8 2.2H9.6C9.3 1.5 8.6 1 7.8 1C7 1 6.2 1.5 5.9 2.2H0.8C0.3 2.2 0 2.6 0 3C0 3.4 0.3 3.8 0.8 3.8ZM7.2 3C7.2 2.7 7.4 2.5 7.7 2.5C8 2.5 8.2 2.7 8.2 3C8.2 3.3 8 3.5 7.7 3.5C7.4 3.5 7.2 3.3 7.2 3ZM14.8 7.2H13.7C13.4 6.5 12.7 6 11.8 6C10.9 6 10.2 6.5 9.9 7.2H0.8C0.3 7.2 0 7.6 0 8C0 8.4 0.3 8.8 0.8 8.8H9.9C10.2 9.5 10.9 10 11.8 10C12.7 10 13.4 9.5 13.7 8.8H14.8C15.2 8.8 15.6 8.5 15.6 8C15.6 7.5 15.2 7.2 14.8 7.2ZM12.2 8C12.2 8.3 12 8.5 11.7 8.5C11.4 8.5 11.2 8.3 11.2 8C11.2 7.7 11.4 7.5 11.7 7.5C12 7.5 12.2 7.7 12.2 8ZM14.8 12.2H5.6C5.3 11.5 4.6 11 3.7 11C2.8 11 2.1 11.5 1.8 12.2H0.8C0.3 12.2 0 12.6 0 13C0 13.4 0.3 13.8 0.8 13.8H1.9C2.2 14.5 2.9 15 3.8 15C4.7 15 5.4 14.5 5.7 13.8H14.8C15.2 13.8 15.6 13.5 15.6 13C15.6 12.5 15.2 12.2 14.8 12.2ZM4.2 13C4.2 13.3 4 13.5 3.7 13.5C3.4 13.5 3.2 13.3 3.2 13C3.2 12.7 3.4 12.5 3.7 12.5C4 12.5 4.2 12.7 4.2 13Z" fill="#2F2F2F"/>
</svg>
