<svg width="16" height="17" viewBox="0 0 16 17" fill="none" xmlns="http://www.w3.org/2000/svg">
<path d="M8.2 15C8 15 7.8 14.9 7.7 14.8C7.6 14.6 3 10.5 3 6.7C3 3.9 5.4 1.5 8.2 1.5C11 1.5 13.4 3.9 13.4 6.7C13.4 10.5 8.8 14.6 8.6 14.8C8.6 14.9 8.4 15 8.2 15ZM8.2 3C6.1 3 4.4 4.7 4.4 6.8C4.4 9.3 7 12.1 8.2 13.3C9.4 12.1 12 9.2 12 6.7C12 4.7 10.3 3 8.2 3ZM8.2 8.7C7.1 8.7 6.2 7.8 6.2 6.7C6.2 5.6 7.1 4.7 8.2 4.7C9.3 4.7 10.2 5.6 10.2 6.7C10.2 7.8 9.4 8.7 8.2 8.7ZM8.2 6.3C8 6.3 7.8 6.5 7.8 6.7C7.8 6.9 8 7.3 8.2 7.3C8.4 7.3 8.7 7.1 8.7 6.8C8.7 6.5 8.5 6.3 8.2 6.3Z" fill="#999999"/>
</svg>
