<svg width="16" height="16" viewBox="0 0 16 16" fill="none" xmlns="http://www.w3.org/2000/svg">
<path fill-rule="evenodd" clip-rule="evenodd" d="M0.799175 0.400643C1.02968 0.227252 1.3392 0.201414 1.59526 0.334188L15.0953 7.33419C15.3439 7.46313 15.5 7.71989 15.5 8C15.5 8.28011 15.3439 8.53688 15.0953 8.66582L1.59526 15.6658C1.3392 15.7986 1.02968 15.7728 0.799175 15.5994C0.568669 15.426 0.458023 15.1358 0.51459 14.8529L1.51459 9.85292C1.55998 9.62597 1.70761 9.43269 1.91462 9.32918L4.57298 8L1.91462 6.67082C1.70761 6.56732 1.55998 6.37404 1.51459 6.14709L0.51459 1.14709C0.458023 0.864252 0.568669 0.574034 0.799175 0.400643ZM2.29189 2.38506L2.91352 5.49323L6.58544 7.32918C6.83952 7.45623 7.00003 7.71592 7.00003 8C7.00003 8.28408 6.83952 8.54378 6.58544 8.67082L2.91352 10.5068L2.29189 13.6149L13.1207 8L2.29189 2.38506Z" fill="white"/>
</svg>
