<svg width="16" height="17" viewBox="0 0 16 17" fill="none" xmlns="http://www.w3.org/2000/svg">
<path d="M8.05 9.25C5.95 9.25 4.25 7.55 4.25 5.55C4.25 3.55 5.95 1.75 8.05 1.75C10.15 1.75 11.85 3.45 11.85 5.55C11.85 7.65 10.05 9.25 8.05 9.25ZM8.05 3.25C6.85 3.25 5.85 4.25 5.85 5.45C5.85 6.65 6.75 7.75 8.05 7.75C9.35 7.75 10.25 6.75 10.25 5.55C10.25 4.35 9.25 3.25 8.05 3.25ZM14.75 14.55C14.75 11.35 12.65 9.75 7.95 9.75C3.25 9.75 1.25 11.25 1.25 14.55C1.25 14.95 1.55 15.35 2.05 15.35C2.55 15.35 2.85 15.05 2.85 14.55C2.85 12.95 3.25 11.35 8.05 11.35C12.85 11.35 13.25 13.05 13.25 14.55C13.25 14.95 13.55 15.35 14.05 15.35C14.55 15.35 14.75 14.95 14.75 14.55Z" fill="#2F2F2F"/>
</svg>
